<svg height="26" viewBox="0 0 132 26" width="132" xmlns="http://www.w3.org/2000/svg"><g fill="none" fill-rule="evenodd"><path d="m15.6409846 15.7560321c-1.3628227 1.358408-3.1732976 2.1062609-5.0981137 2.1062609-1.92349164 0-3.73352508-.7478529-5.09546488-2.1040535-1.3619398-1.3601739-2.11244147-3.1662341-2.11244147-5.0866355 0-1.91907691.75050167-3.72469564 2.11155853-5.08354514 1.36326421-1.35796655 3.17285618-2.1058194 5.09634782-2.1058194 1.9230502 0 3.734408.74785285 5.0981137 2.10493646 1.3601739 1.35973244 2.1097927 3.16535117 2.1097927 5.08442808 0 1.9204014-.7496188 3.7264616-2.1097927 5.0844281m-5.0981137-15.60160534c-5.81197324.00088294-10.54234113 4.71888963-10.54278261 10.51717724.00044148 5.7996121 4.73080937 10.5185017 10.54278261 10.5193846 5.8124147-.0008829 10.5427826-4.7197725 10.5427826-10.5193846 0-5.79828761-4.7303679-10.5162943-10.5427826-10.51717724" fill="#fdbb30" transform="translate(0 3.099175)"/><path d="m22.0276656 2.45418462h.822903v-.81892977h-.822903z" fill="#fdbb30"/><path d="m22.0276656.82162274h.822903v-.82157859h-.822903z" fill="#fdbb30"/><path d="m19.714796 3.24883344h.768602v-.80038796h-.768602z" fill="#fdbb30"/><g fill="#fff"><path d="m18.1930435 4.78647893h.7743411v-.76507023h-.7743411z"/><path d="m20.483398 4.02096722h.8604281v-.7716923h-.8604281z"/><path d="m17.4235585 4.02096722h.7699264v-.73372575h-.7699264z"/><path d="m19.7152375 4.78647893h.768602v-.76507023h-.768602z"/><path d="m21.2149164 1.63437191h.8127492v-.81274917h-.8127492z"/><path d="m19.7152375 2.44844548h1.4996789v-.8136321h-1.4996789z"/><path d="m18.9673846 4.0214087h.7465284v-1.57296322h-.7465284z"/><path d="m18.9673405 5.558701h-.7743412v-.77213378h-1.2842408v.55625418h-.6882542v.6864883h.7690435v.76330435h-.7690435v-.76330435h-.8167224v1.19859532h-.7738996v.76507023h-.5116656v.76771906h-.5642006c-.6335118.94033445-2.2201606 3.86773249-2.7009231 5.06147159-1.72836123-2.400281-3.07087628-3.3529766-4.12775922-3.6977659-.57126421-.1708495-1.25863545.4485351-.31079599 1.4241873 2.17601338 2.3861538 2.86117726 4.363505 3.52250167 5.9404415.35008694.8312909 1.91819394.9602006 2.23384614.1143411.6697124-1.7901672 1.6405084-3.8010702 2.7896589-5.451291v-.8568963h.6140869v-.7703679h.6458729v-.89442139h.7716924v-.86175251h-.7805218v-.78317057h.7805218v.78317057h.7624214l-.0022074-.77566555h.6127625v-.93591973h.6869298v-.6445485h.6630903v-1.6259398h-.7478528z"/><path d="m60.394503 16.3133017c-.0653378.3187424-.178796.6087893-.3364013.8635184-.1606957.2578194-.3796656.4661939-.6511706.6202675-.2719465.1540736-.6096722.2313311-1.0056722.2313311-.3946756 0-.7306355-.0772575-.9968428-.232214-.2662074-.1531907-.4816455-.3620067-.6423412-.6193846-.1580468-.2538462-.2710635-.5443345-.3368428-.8635184-.0644548-.3143278-.0966823-.6401338-.0966823-.9699131 0-.3293378.0322275-.659117.0966823-.9778595.0657793-.3244816.178796-.6158528.3372843-.8648428.1606956-.2511973.3756923-.4600134.6405752-.6185017.2670903-.1598127.6030502-.2410435.9981673-.2410435.396 0 .7346087.0812308 1.0069966.240602.2706221.1589298.4891505.3673044.6494047.6189432.1580468.2494314.271505.5408027.3368428.8648428.0644549.3187425.0975652.6476388.0975652.9778595 0 .3297793-.0331103.6555853-.0975652.9699131m1.0471706-4.0403479c-.3615652-.3633311-.8030368-.6489632-1.3142609-.8480668-.512107-.1999867-1.0926421-.3015251-1.7261538-.3015251-.6326288 0-1.2100736.101097-1.716883.3015251-.5059264.1991036-.9460736.4847357-1.3067558.8480668-.3606823.3628897-.6427826.8092174-.8392375 1.3266221-.1968963.5187291-.2962274 1.1050034-.2962274 1.7438127 0 .6383679.0993311 1.2215519.2962274 1.7349833.1964549.51299.4785552.9562274.8392375 1.3195585.3606822.3633311.8008294.6454315 1.3063143.839679.5068094.1942475 1.0846957.2935786 1.7173245.2935786.6335117 0 1.2149297-.0993311 1.7270368-.2935786.5103411-.1942475.9518127-.4763479 1.3133779-.839679.3606823-.3637725.6436655-.8065685.8396789-1.3195585.1973378-.5134314.2966689-1.0974983.2966689-1.7349833 0-.6379264-.0993311-1.2250836-.2966689-1.7438127-.1960134-.5169632-.4789966-.963291-.8396789-1.3266221"/><path d="m70.4862783 12.0123973c-.2127893-.2759197-.5081338-.4948896-.8798529-.6511705-.3743679-.1576054-.8635184-.2379532-1.4533244-.2379532-.4613378 0-.9200268.1063946-1.3619398.3147692-.4388227.2074916-.9036923.543893-1.1800535.9999331l-.0247224.0414983c-.0132442.0203077-.0300201.0304616-.0498863.0304616-.0203077 0-.0291371-.0101539-.0291371-.0304616v-1.1350234h-1.9764683v7.9813646h2.0881606v-4.1877993c0-.8449766.1439197-1.4643613.4291103-1.8396121.2926957-.3836388.7650703-.5778863 1.4056455-.5778863.5690569 0 .9734448.1801204 1.2008027.535505.2198529.3434649.3315452.8648429.3315452 1.5508897v4.518903h2.0863946v-4.9290301c0-.4953311-.0441471-.9540201-.1333244-1.3619398-.0869699-.4008562-.2392776-.745204-.4529498-1.0224482"/><path d="m31.8433003 16.0162796-4.9047491-7.75621405h-2.251505v11.08755855h2.0705016v-7.7924147l.1651104.2560535 4.7237458 7.5363612h2.2678395v-11.08755855h-2.0705017z"/><path d="m41.0199933 16.3133017c-.0653378.3187424-.178796.6087893-.3368428.8635184-.1602542.2578194-.380107.4661939-.6507291.6202675-.2719465.1540736-.6105552.2313311-1.0047893.2313311-.396 0-.7310769-.0772575-.9977257-.232214-.2662074-.1531907-.482087-.3620067-.6423412-.6193846-.1584883-.2547291-.271505-.544776-.3368428-.8635184-.0644548-.3143278-.0971237-.6401338-.0971237-.9699131 0-.3293378.0326689-.659117.0971237-.9778595.0653378-.3240401.1783545-.6154114.3368428-.8648428.1606957-.2511973.3756923-.4600134.6410167-.6185017.2670903-.1598127.6030502-.2410435.9990502-.2410435.3946756 0 .7332843.0812308 1.0061137.240602.2701806.1584883.4891505.3673044.6489632.6189432.1584883.2494314.2719465.5408027.3372843.8648428.0644549.3187425.0971238.6476388.0971238.9778595 0 .3297793-.0326689.6555853-.0971238.9699131m1.0471706-4.0403479c-.3611238-.3633311-.8039198-.6489632-1.3142609-.8480668-.512107-.1999867-1.0926421-.3015251-1.7252709-.3015251-.6335117 0-1.211398.101097-1.7177659.3015251-.5059264.1991036-.9456321.4847357-1.3063144.8480668-.3611237.3628897-.644107.8092174-.8396789 1.3266221-.1968963.5187291-.2966689 1.1050034-.2966689 1.7438127 0 .6383679.0997726 1.2215519.2962274 1.7349833.1960134.51299.4789967.9562274.8401204 1.3195585.3606823.3633311.800388.6454315 1.30499.839679.5076923.1942475 1.0855786.2935786 1.7190903.2935786.6326288 0 1.2131639-.0993311 1.7257124-.2935786.5103411-.1942475.9526956-.4763479 1.3138194-.839679.3606823-.3637725.644107-.80701.8396789-1.3195585.1964549-.5134314.2966689-1.0970568.2966689-1.7349833 0-.6379264-.100214-1.2250836-.2971104-1.7438127-.1951304-.5169632-.4785551-.963291-.8392374-1.3266221"/><path d="m52.1307291 8.94752508-2.0868361-.01986622-.0220736 2.31242814h-.5425686s-.9928695-.0379666-1.8550635.2794515c-.5293244.1946889-.9721204.535505-1.257311 1.0511438-.055184.1015384-.1050703.209699-.1483345.3253645-.0066221.0247224-.022515.0366422-.0481204.0366422-.0256053 0-.0379666-.0119198-.0379666-.0366422v-1.5133645h-1.9755852v7.981806h2.0872776v-3.5891639c0-.3730435.0370836-.7244548.1130167-1.0436388.0481204-.2066087.1209632-.3955585.2110234-.5703813.3778997-.6043745 1.1946221-1.2065418 2.9560936-1.2242006h.4807626l-.0450301 4.6553177c-.0035318.3951171.0595986.7160669.1876254.9553445.1267023.2383946.3041739.4255786.5271171.5553712.2255919.132883.4935652.2251505.7937658.272388.3063813.0498863.6361606.0763746.9805084.0799063.2145552.0026489.4441204-.0013244.6803077-.0101538.1995451-.0061806.3862876-.0220736.5536053-.0450301l.0163345-1.5597191c-.0785819.0119198-.1589298.0203077-.241485.0269298-.1191973.0101538-.2450167.0141271-.3734849.0128027-.4092442-.0039733-.6776589-.0759331-.8224615-.2220602-.1430368-.1452442-.2114649-.4123345-.2079332-.8184883l.0384081-3.9026087h1.6069565v-1.6970167h-1.5906221z"/><path d="m75.7714435 9.10380602h-2.4298596v10.19269568h7.3933245v-1.8784616h-4.9634649z"/><path d="m81.7795184 19.2967666h2.2510635v-8.0087358h-2.2510635z"/><path d="m81.7795184 10.1786127h2.2510635v-1.91863544h-2.2510635z"/><path d="m86.8914502 9.0458408c-.3430234.33463545-.4767893.85910368-.4767893 1.863893v.3783411h-1.2374448v1.7473445h1.2374448v6.2613913h2.2952107v-6.2613913h1.669204v-1.7323345h-1.6837726v-.3205083c0-.3933512.0295786-.5540468.1037458-.6410167.0891773-.0728428.1792375-.10198.4772308-.10198h1.102796v-1.6890702h-1.8775786c-.8794114 0-1.2674649.16025418-1.6100468.4953311"/><path d="m93.2121311 14.5495786c.0141271-1.1204549.0891773-1.3685619.1933646-1.4705418.1046287-.1165485.3425819-.1452442.7306354-.1452442h1.2374448c.4617793 0 .5959866.0432643.6856054.1311171.1041873.116107.178796.4074783.178796 1.4846689zm2.9216589-3.261592h-2.772883c-.8348227 0-1.2815919.1311171-1.6246154.4807626-.5368294.5381538-.745204 1.1650434-.745204 3.5238261 0 2.3587826.2083746 2.9843478.745204 3.5092575.3580335.3637726.7897927.4948896 1.6246154.4948896h3.0412977c.8789699 0 1.2069833-.2185284 1.4603879-.4666354.4021806-.3924683.536388-.8538061.5518395-2.0479867h-2.1018461c-.0150101.5686154-.0450301.6361606-.1196388.7231305-.0891773.1024214-.2088161.1461271-.6701539.1461271h-1.3866622c-.3880535 0-.6260067-.0295786-.7306354-.1461271-.0896188-.101097-.1792375-.3222743-.1933646-1.5892977h4.8742876c.2679733 0 .3280134-.0874114.3280134-.3196254v-.3770167c0-2.3000669-.1196388-2.9260736-.6560267-3.4505418-.3430235-.3496455-.7897927-.4807626-1.6246154-.4807626z"/><path d="m100.90857 9.10424749h-1.1774048v10.19225421h6.4843348v-.9897793h-5.30693z"/><path d="m112.155765 18.1175518c-.164228.1602542-.388054.218087-.954021.218087h-1.848882c-.566408 0-.789793-.0578328-.968589-.218087-.237953-.2335384-.357592-.6118796-.357592-2.7229966 0-2.0965485.119639-2.4757726.357592-2.7084281.178796-.1748228.402181-.2189699.968589-.2189699h1.848882c.565967 0 .789793.0441471.954021.2189699.238394.2326555.37216.6118796.37216 2.7084281 0 2.111117-.133766 2.4894582-.37216 2.7229966m-.835265-6.6114782h-2.086836c-.819371 0-1.281592.1028629-1.624615.4374983-.506368.4953311-.685606 1.1213378-.685606 3.4509833 0 2.3446555.179238 2.9706622.685606 3.4651104.343023.3350769.805244.4370568 1.624615.4370568h2.086836c.804803 0 1.282034-.1019799 1.610489-.4370568.521378-.4944482.700174-1.1204549.700174-3.4651104 0-2.3296455-.178796-2.9556522-.700174-3.4509833-.328455-.3346354-.805686-.4374983-1.610489-.4374983"/><path d="m119.795739 18.1317672c-.178796.1602542-.373485.2044014-.865284.2044014h-1.743371c-.56685 0-.789793-.0591572-.96903-.2189699-.238837-.2326556-.357592-.6114382-.357592-2.7225552 0-2.09699.118755-2.4753311.357592-2.7088696.179237-.1743813.40218-.2180869.96903-.2180869h1.743371c.491799 0 .671037.0437056.835264.2035184.163786.1602541.253846.3933511.297552 1.3831304h1.073217c-.029137-1.2957191-.178796-1.7906087-.550956-2.1548228-.298435-.2909297-.641458-.3929097-1.431251-.3929097h-2.086836c-.819813 0-1.282034.10198-1.624174.4366154-.507251.4953311-.686047 1.1213378-.686047 3.4514248 0 2.3437726.178796 2.9706622.686047 3.4651103.34214.3346355.804361.4370569 1.624174.4370569h2.101404c.760656 0 1.133258-.11699 1.416683-.3929097.388053-.3792241.536388-.8308495.580976-2.2426756h-1.072776c-.030461.9897793-.119197 1.2957191-.297993 1.4705418"/><path d="m128.58248 11.5066916h-1.32618l-2.936228 3.4077191h-.820254v-6.10157859h-1.103237v10.48406689h1.103237v-3.4801204h.789793l3.025846 3.4801204h1.386662l-3.517645-3.9900201z"/><path d="m131.263228 11.1594301-.259144.9641739-.272388-.9641739h-.425137v1.3213244h.268856v-1.0100869l.288281 1.0100869h.253405l.292696-1.0100869v1.0100869h.277685v-1.3213244z"/><path d="m129.044657 11.3762809h.356267v1.1041204h.282542v-1.1041204h.35097v-.2167625h-.989779z"/></g></g></svg>