<?xml version="1.0" encoding="UTF-8"?>
<svg width="160px" height="160px" viewBox="0 0 160 160" version="1.1" xmlns="http://www.w3.org/2000/svg" xmlns:xlink="http://www.w3.org/1999/xlink">
    <title>Icon_60 Day Money Back_JP</title>
    <defs>
        <circle id="path-1" cx="50.5" cy="46" r="46"></circle>
        <filter x="-41.3%" y="-33.7%" width="182.6%" height="182.6%" filterUnits="objectBoundingBox" id="filter-2">
            <feOffset dx="0" dy="7" in="SourceAlpha" result="shadowOffsetOuter1"></feOffset>
            <feGaussianBlur stdDeviation="11.5" in="shadowOffsetOuter1" result="shadowBlurOuter1"></feGaussianBlur>
            <feColorMatrix values="0 0 0 0 0   0 0 0 0 0   0 0 0 0 0  0 0 0 0.15 0" type="matrix" in="shadowBlurOuter1"></feColorMatrix>
        </filter>
    </defs>
    <g id="Icon_60-Day-Money-Back_JP" stroke="none" stroke-width="1" fill="none" fill-rule="evenodd">
        <g id="Icon_MB" transform="translate(29.000000, 33.000000)">
            <g id="Circle">
                <use fill="black" fill-opacity="1" filter="url(#filter-2)" xlink:href="#path-1"></use>
                <use fill="#FFFFFF" fill-rule="evenodd" xlink:href="#path-1"></use>
            </g>
            <path d="M8.43095288,56.9419348 L8.49832533,57.2093164 C13.3741529,76.6190923 30.6609677,90.1757457 50.5368506,90.1757457 C70.4125889,90.1757457 87.6994037,76.6190923 92.5753759,57.2093164 L92.6427483,56.9419348 L95.5250166,56.9419348 L95.4210664,57.3781047 C93.0388867,67.3497188 87.3146868,76.3940898 79.3022816,82.8429955 C71.0462658,89.487777 61.0988546,93 50.5368506,93 C39.9748466,93 30.0272909,89.487777 21.771275,82.8429955 C13.7588698,76.3940898 8.03466991,67.3497188 5.65263476,57.3781047 L5.54853999,56.9419348 L8.43095288,56.9419348 Z M51.7212177,79.9562648 L53.6653319,85.8963299 L52.003141,85.9344857 L51.681893,84.6709767 L50.019702,84.7092781 L49.7555616,85.9857484 L48.1481649,86.0228847 L49.8203316,80.000974 L51.7212177,79.9562648 Z M41.7824811,78.9972737 L43.9905912,79.4193172 C44.3017189,79.4781528 44.5937625,79.5650955 44.8667221,79.6802909 C45.1385251,79.79403 45.3684011,79.9449054 45.5537476,80.1291308 C45.7390941,80.3145211 45.8712366,80.5422906 45.9511872,80.8096722 C46.0311377,81.0783645 46.0361979,81.3954068 45.9663676,81.7638574 C45.8864171,82.1859009 45.7364917,82.5196909 45.5131217,82.7640626 C45.2907637,83.0084342 45.0204065,83.1823196 44.7042186,83.2833886 L45.5410249,85.8044357 L43.8166662,85.4742864 L43.1829894,83.3114957 L42.5900829,83.1989217 L42.2192453,85.1699142 L40.675173,84.8745711 L41.7824811,78.9972737 Z M60.1494236,78.467899 L61.5562932,84.2798073 L59.9945827,84.6635494 L58.0860341,82.375369 L57.2213247,81.2139485 L57.185759,81.2229777 C57.3025764,81.5477385 57.4321166,81.9007521 57.5742348,82.2831835 C57.7166423,82.6644498 57.8321585,83.0340655 57.9183259,83.3921762 L58.3260304,85.0727772 L56.8695711,85.4310335 L55.4627015,79.6189795 L57.0245567,79.2352375 L58.9303583,81.5145343 L59.7976701,82.6848384 L59.8332358,82.6758092 C59.7774294,82.5249337 59.7151171,82.3599319 59.6465881,82.1809494 C59.5792156,82.0031319 59.5119878,81.8177415 59.4472177,81.628419 C59.3824476,81.4390966 59.3202799,81.2497741 59.2581122,81.0592866 C59.1957999,80.8699641 59.1437525,80.6845737 59.1005243,80.5066106 L58.6942656,78.824699 L60.1494236,78.467899 Z M36.4700338,77.0251162 L38.221139,77.7694447 L37.5773418,83.9895614 L36.044691,83.3371271 L36.2656032,82.0530839 L34.7342536,81.4006496 L33.9749401,82.4572145 L32.4931801,81.8266251 L36.4700338,77.0251162 Z M50.7790155,81.1559867 L50.7421486,81.1572974 C50.6825833,81.4656017 50.6215722,81.7878868 50.5594045,82.1242983 C50.4972368,82.459399 50.4324667,82.7726549 50.3650942,83.063192 L50.2750234,83.4788277 L51.3707653,83.4531963 L51.2603092,83.0426578 C51.1816598,82.7547421 51.1017093,82.4441076 51.0203129,82.1090068 C50.9390612,81.7724497 50.8591106,81.4552618 50.7790155,81.1559867 Z M66.5242158,75.6118968 L67.0980382,76.8040458 L65.6848072,77.4959466 L67.705113,81.6849245 L66.2917375,82.3769709 L64.2715762,78.187993 L62.8582007,78.8798938 L62.2830771,77.6877448 L66.5242158,75.6118968 Z M43.0942197,80.5217564 L42.8224167,81.9684713 L43.3786008,82.0746375 C44.0008561,82.1936194 44.3614288,81.9941027 44.457861,81.4760873 C44.5061494,81.2228321 44.4591622,81.0321989 44.3195018,80.9054985 C44.1785401,80.7789437 43.9563267,80.6869039 43.6502592,80.6280683 L43.0942197,80.5217564 Z M36.8395702,78.4601804 C36.6592838,78.7172221 36.4726361,78.9857687 36.2796271,79.265966 C36.0853169,79.5473283 35.8986692,79.8056806 35.7209852,80.0423337 L35.4682663,80.385153 L36.4776963,80.8136043 L36.5450688,80.3928715 C36.5894536,80.0985479 36.6428022,79.7826707 36.7062711,79.4424727 C36.7684388,79.1034399 36.8243897,78.7798441 36.8738347,78.4756175 L36.8395702,78.4601804 Z M29.1998821,72.5606012 L30.4873319,73.4687665 L28.6195538,76.152194 C28.3160886,76.5896745 28.1599465,76.9389016 28.1535851,77.1997297 C28.1459226,77.4607035 28.2704026,77.6807544 28.5242781,77.8610476 C28.7794549,78.0400302 29.029716,78.0835744 29.2759291,77.9913889 C29.5224313,77.9006597 29.7978487,77.6358995 30.1013138,77.198419 L31.9679353,74.5149916 L33.2098436,75.392574 L31.4486181,77.9249804 C30.8645308,78.7641158 30.2714798,79.2680048 29.6696097,79.4394145 C29.0677396,79.6095134 28.4265447,79.4547059 27.748483,78.9764482 C27.0653611,78.4941128 26.6971259,77.9353203 26.6424762,77.3021095 C26.5891276,76.6688987 26.8545692,75.9322886 27.4373553,75.0931532 L29.1998821,72.5606012 Z M71.5074634,72.0162263 L72.3049449,73.0701699 L70.5030935,74.4541171 L71.0680967,75.201067 L72.6084101,74.0179473 L73.405747,75.0718909 L71.8655783,76.2550106 L72.5080743,77.104486 L74.3822137,75.6641789 L75.1796953,76.7179769 L72.055985,79.1175663 L68.4548845,74.3607666 L71.5074634,72.0162263 Z M26.3699503,55.1001185 L26.4538044,55.3316745 C30.1310965,65.411785 39.7535007,72.184432 50.3992142,72.184432 C61.0450723,72.184432 70.6674765,65.411785 74.3436119,55.3316745 L74.3436119,55.3316745 L74.4273215,55.1001185 L77.3807212,55.1001185 L77.2245791,55.5668712 C73.3403987,67.1960764 62.5600848,75.0086863 50.3992142,75.0086863 C38.2373315,75.0086863 27.4568731,67.1960764 23.5726927,55.5668712 L23.5726927,55.5668712 L23.4165506,55.1001185 L26.3699503,55.1001185 Z M24.054131,68.2945836 C24.4324865,68.3189042 24.794505,68.4188082 25.138596,68.5926936 C25.4839882,68.7678897 25.7874533,69.0033777 26.0527504,69.3000315 C26.3460952,69.6287244 26.5430078,69.9638252 26.6407412,70.3079551 C26.7397759,70.6520851 26.7804017,70.976846 26.7652212,71.2799075 L25.4675065,71.3413645 C25.4649042,71.1457799 25.44076,70.9589332 25.3937727,70.7837371 C25.3467855,70.6072303 25.2439919,70.4307235 25.0839462,70.2517409 C24.9506471,70.1020306 24.7958062,69.9894565 24.6230378,69.9151838 C24.4502694,69.8410568 24.2675252,69.8052312 24.073215,69.8078526 C23.8789048,69.810474 23.6783778,69.8578046 23.4739473,69.9485337 C23.2682155,70.0394085 23.0662428,70.1761576 22.8668724,70.3565965 C22.4503488,70.7337851 22.214256,71.1162164 22.1596063,71.5050556 C22.1051011,71.8925842 22.2574843,72.2878312 22.6155992,72.6894861 C22.6727067,72.7535645 22.7348744,72.8097787 22.8047047,72.85842 C22.8732337,72.9082264 22.939305,72.9415762 23.0027739,72.9568677 L23.6136077,72.4030267 L23.0269181,71.7468059 L23.9779394,70.8848061 L25.4941085,72.5808441 L23.388792,74.4892146 C23.0967483,74.4648939 22.7792593,74.368922 22.4364695,74.2014444 C22.0936796,74.0339669 21.7825519,73.792071 21.5006286,73.4773588 C21.22391,73.1678894 21.0092146,72.8327886 20.856976,72.475843 C20.7057494,72.1177323 20.6334614,71.7520486 20.6398228,71.3785009 C20.6461841,71.0062638 20.7388574,70.6328616 20.9178425,70.2594595 C21.0968277,69.8870767 21.374992,69.5302767 21.7495886,69.1900788 C22.1215828,68.8523567 22.5038419,68.6132278 22.8973779,68.471236 C23.2910585,68.3292441 23.6757754,68.2704085 24.054131,68.2945836 Z M75.9745745,67.2780676 L76.9637639,68.1517179 L75.4692811,69.8681445 L76.1700413,70.487229 L77.4475153,69.0202711 L78.4367047,69.8937758 L77.1592307,71.3608793 L77.9567122,72.0642851 L79.5109049,70.278683 L80.5000943,71.153644 L77.909725,74.1287737 L73.4439151,70.1854781 L75.9745745,67.2780676 Z M60.8880627,41.2894817 L60.8880627,43.0380931 L55.2387532,43.0380931 L55.2387532,43.6251384 L60.5909589,43.6251384 L60.5909589,45.2661273 C60.4359734,45.7215206 60.0918823,46.7153179 59.2106913,47.7692615 C59.6156488,48.009701 60.1744353,48.2848011 61.1256012,48.52393 L60.0793042,50.2493858 L61.2334549,50.2493858 L60.7813656,52.1295035 L54.6559671,52.1295035 C53.1461593,52.1295035 52.4212549,51.339155 52.0047313,50.8849267 C51.7671929,51.1843475 51.4929321,51.4836226 50.3513595,52.4417399 L49.6023109,50.2020551 C50.0785445,49.9501106 50.3272153,49.8068081 50.7195947,49.4947173 L50.7195947,47.1822162 L49.7330077,47.1822162 L49.7330077,45.3505942 L52.6116616,45.3505942 L52.6116616,48.9676727 C52.7539245,49.4830667 53.0508837,50.2493858 54.4425728,50.2493858 L59.9966067,50.2493858 C59.1281383,49.9141394 58.4386551,49.5190379 57.8317248,49.0879653 C56.9276907,49.7466618 56.2139187,50.0345776 55.7632751,50.2135601 L54.8109526,48.7758745 C54.6091245,49.423066 54.4185732,49.7824874 54.2635877,50.0817626 L52.69407,48.6199019 C53.1461593,47.8179028 53.3964205,46.5720154 53.3964205,45.685695 L53.3964205,41.2894817 L60.8880627,41.2894817 Z M95.1025654,48.4771819 L95.1025654,51.9869291 L92.7954206,51.9869291 L92.7954206,52.3936811 L91.0240747,52.3936811 L91.0240747,48.4771819 L95.1025654,48.4771819 Z M41.3020548,41.3490455 L41.3020548,46.0687089 L38.1504413,46.0687089 L38.1504413,52.3936811 L36.3068074,52.3936811 L36.3068074,41.3490455 L41.3020548,41.3490455 Z M46.9856289,41.3490455 L46.9856289,51.064783 C46.9856289,52.2992185 46.0218813,52.3878393 45.8613365,52.3933452 L43.4060702,52.3936811 L43.2283862,51.3154169 L38.9949101,51.3154169 L38.9949101,46.5356072 L44.2746832,46.5356072 L44.2746832,50.5007477 L44.738194,50.5007477 C45.1190074,50.5007477 45.1190074,50.3088039 45.1190074,50.0581701 L45.1190074,46.0687089 L41.9078285,46.0687089 L41.9078285,41.3490455 L46.9856289,41.3490455 Z M78.3814767,40.9293321 L80.2838085,41.0739454 C80.201111,41.63667 80.0589927,42.643283 79.6183249,43.9723267 L79.6183249,52.3706711 L77.7631249,52.3706711 L77.7631249,47.374597 C77.6210066,47.5305695 77.525731,47.6380465 77.2400487,47.9014959 L76.8235251,44.9302983 C77.2286272,44.3559231 78.0845175,43.1345019 78.3814767,40.9293321 Z M87.7640292,41.3015692 L87.7640292,45.5659849 L85.1596361,45.5659849 L85.1596361,46.2003608 L88.2884066,46.2003608 L88.2884066,48.0089729 L86.2072342,48.0089729 C87.1099671,49.3391816 88.0978553,50.0695294 88.4902347,50.3572996 L87.3360841,52.118581 C86.8128633,51.6516827 85.9685391,50.8726936 85.1596361,49.5183098 L85.1596361,52.3706711 L83.3044361,52.3706711 L83.3044361,49.5912717 C82.3534148,50.8483729 81.5686559,51.4957101 80.8551731,52.0341141 L79.7248774,50.3099689 C80.5820689,49.78307 81.4265376,49.207384 82.3419933,48.0089729 L80.1769668,48.0089729 L80.1769668,46.2003608 L83.3044361,46.2003608 L83.3044361,45.5659849 L80.7483314,45.5659849 L80.7483314,41.3015692 L87.7640292,41.3015692 Z M32.6799724,41.4206968 L32.6799724,52.2978548 L30.5748004,52.2978548 L30.5748004,51.8667821 L25.3901583,51.8667821 L25.3901583,52.2978548 L23.3319736,52.2978548 L23.3319736,41.4206968 L32.6799724,41.4206968 Z M70.1399184,40.9291865 C71.3057798,41.9842952 72.6974689,42.9065868 74.8966154,43.6254297 L73.9697382,45.6974912 C73.4465175,45.4582167 72.9347182,45.2305929 72.4599305,44.9671434 L72.4599305,45.6974912 L70.0092217,45.6974912 L70.0092217,46.3446828 L74.2554205,46.3446828 L74.2554205,48.2249461 L71.3412009,48.2249461 L73.3029535,48.7646607 C73.2205451,49.0037896 73.0898484,49.351706 72.7214686,50.2010357 L74.5169586,50.2010357 L74.5169586,52.0824641 L63.5397322,52.0824641 L63.5397322,50.2010357 L65.3123793,50.2010357 C65.1104065,49.5423392 64.8844341,49.0639359 64.7651589,48.7761657 L66.6799242,48.2249461 L63.836836,48.2249461 L63.836836,46.3446828 L68.0716133,46.3446828 L68.0716133,45.6974912 L65.669193,45.6974912 L65.669193,44.9543277 C64.8844341,45.3380698 64.5504634,45.4697217 64.1708067,45.6373449 L63.2539053,43.6254297 C64.8007246,43.1572206 66.7978983,42.2835703 68.0347464,40.9291865 L70.1399184,40.9291865 Z M101.833593,41.3132198 L101.833593,43.1818326 L100.262919,43.1818326 L100.262919,45.4701586 L101.547911,45.4701586 L101.547911,47.2787707 L100.262919,47.2787707 L100.262919,50.165647 L102,50.165647 L102,52.071396 L95.4236688,52.071396 L95.4236688,50.165647 L95.7692056,50.165647 L95.7692056,44.2716018 L97.6229598,44.2716018 L97.6229598,50.165647 L98.3253103,50.165647 L98.3253103,43.1818326 L95.6370631,43.1818326 L95.6370631,41.3132198 L101.833593,41.3132198 Z M4.29318607,41.7089038 C6.68288375,41.7089038 8.12156012,42.1041508 8.12156012,44.5713138 L5.99340053,44.5713138 C6.02896624,43.9957735 5.85113769,43.6248471 4.37559443,43.6248471 C2.58010435,43.6248471 2.11673808,43.8166453 2.10401539,45.8415219 C2.44940759,45.5294311 2.85320853,45.1585047 4.72113121,45.1585047 C6.46948949,45.1585047 8.22941386,45.4692848 8.22941386,48.1885379 C8.22941386,51.3400288 6.27908282,51.3400288 4.20933196,51.3400288 C0.659946644,51.3400288 0.0261772986,50.639313 0.000815174026,47.072053 L3.55271368e-15,46.8353192 C3.55271368e-15,42.7743524 0.356813714,41.7089038 4.29318607,41.7089038 Z M15.4000972,41.7083213 C19.2170498,41.7083213 19.7402705,42.5946417 19.7402705,46.6084235 C19.7402705,50.4647765 19.0152216,51.3397375 15.6616353,51.3397375 C12.0822213,51.3397375 11.226331,50.9086648 11.226331,46.5239566 C11.226331,42.643283 11.89167,41.7083213 15.4000972,41.7083213 Z M93.5330477,49.8419056 L92.7954206,49.8419056 L92.7954206,50.560894 L93.5330477,50.560894 L93.5330477,49.8419056 Z M71.3057798,48.2249461 L70.0092217,48.2249461 L70.0092217,50.2010357 L70.6988495,50.2010357 C70.9488215,49.5551548 71.1507942,48.8476714 71.3057798,48.2249461 Z M68.0716133,48.2249461 L66.6913457,48.2249461 C67.0964478,49.0754409 67.3096975,49.9502563 67.3806844,50.2010357 L68.0716133,50.2010357 L68.0716133,48.2249461 Z M30.5748004,47.5063945 L25.3901583,47.5063945 L25.3901583,49.8905469 L30.5748004,49.8905469 L30.5748004,47.5063945 Z M42.4906146,49.3751529 L40.7548344,49.3751529 L40.7548344,49.8905469 L42.4906146,49.8905469 L42.4906146,49.3751529 Z M4.14962205,47.0271174 C2.43798608,47.0271174 2.11673808,47.2792076 2.11673808,48.2973255 C2.11673808,49.3754441 2.71094568,49.4227748 4.30460758,49.4227748 C5.83841499,49.4227748 6.12409729,49.2194716 6.12409729,48.2371792 C6.12409729,47.2305663 5.67215252,47.0271174 4.14962205,47.0271174 Z M15.4839513,43.6729059 C13.5094761,43.6729059 13.3659121,43.7330522 13.3659121,46.5597822 C13.3659121,49.287726 13.5018208,49.3832372 15.4366356,49.3864074 L15.60207,49.3865122 C17.3431513,49.3865122 17.574953,49.2517631 17.5874028,47.0043508 L17.5879667,46.7874061 C17.5879667,46.2720121 17.5651237,44.6910239 17.4101382,44.2842718 C17.20831,43.7202365 16.5530913,43.6729059 15.4839513,43.6729059 Z M56.7142964,45.2661273 L55.2387532,45.2661273 L55.2387532,46.0566214 C55.2387532,46.1410883 55.2033321,47.3266838 54.870518,48.5366 C55.3111858,48.416453 55.8215393,48.2246548 56.4756014,47.8063978 C55.8101178,46.9557574 55.513014,46.1882733 55.358173,45.7931719 L56.7142964,45.2661273 Z M42.4906146,47.8658159 L40.7548344,47.8658159 L40.7548344,48.3327143 L42.4906146,48.3327143 L42.4906146,47.8658159 Z M95.1025654,46.6672591 L95.1025654,48.0807698 L91.0240747,48.0807698 L91.0240747,46.6672591 L95.1025654,46.6672591 Z M58.6404833,45.2661273 L56.9518349,45.2661273 C57.1180974,45.6498693 57.3556358,46.1282726 57.7961591,46.6321616 C58.1174071,46.2727402 58.4742208,45.7931719 58.6404833,45.2661273 Z M95.1025654,44.8831133 L95.1025654,46.2606527 L91.0240747,46.2606527 L91.0240747,44.8831133 L95.1025654,44.8831133 Z M30.5748004,43.3852814 L25.3901583,43.3852814 L25.3901583,45.6019562 L30.5748004,45.6019562 L30.5748004,43.3852814 Z M45.1190074,44.2474268 L43.7273182,44.2474268 L43.7273182,44.7385001 L45.1190074,44.7385001 L45.1190074,44.2474268 Z M39.4939866,44.2474268 L38.1504413,44.2474268 L38.1504413,44.7385001 L39.4939866,44.7385001 L39.4939866,44.2474268 Z M95.470656,43.02586 L95.470656,44.5108763 L90.7255252,44.5108763 L90.7255252,43.02586 L95.470656,43.02586 Z M51.1246969,41.0132166 C51.3151035,41.1578298 52.6116616,42.1516271 53.1461593,42.8704699 L51.7189045,44.3554862 C51.1361184,43.5893128 50.6130422,43.0852781 49.7812961,42.4393972 L51.1246969,41.0132166 Z M85.8136982,42.9668787 L82.6746628,42.9668787 L82.6746628,43.9965017 L85.8136982,43.9965017 L85.8136982,42.9668787 Z M69.0823446,42.4755141 C68.7483739,42.8464405 68.3445729,43.2660082 67.464683,43.9003841 L70.7469933,43.9003841 C69.9978002,43.3733395 69.4505798,42.8349356 69.0823446,42.4755141 Z M45.1190074,42.6536229 L43.7273182,42.6536229 L43.7273182,43.1333369 L45.1190074,43.1333369 L45.1190074,42.6536229 Z M39.4939866,42.6536229 L38.1504413,42.6536229 L38.1504413,43.1333369 L39.4939866,43.1333369 L39.4939866,42.6536229 Z M95.1025654,41.3132198 L95.1025654,42.6549336 L91.0240747,42.6549336 L91.0240747,41.3132198 L95.1025654,41.3132198 Z M50.3992142,17.9913137 C62.0787911,17.9913137 72.7143843,25.3958609 76.8666087,36.4174866 L76.8666087,36.4174866 L77.0468951,36.8972006 L74.0450624,36.8972006 L73.9549915,36.6784603 C69.9805956,27.0419469 60.7340892,20.815568 50.3992142,20.815568 C40.0633271,20.815568 30.8168207,27.0419469 26.8422803,36.6784603 L26.8422803,36.6784603 L26.7522094,36.8972006 L23.7505213,36.8972006 L23.9308076,36.4174866 C28.0828874,25.3958609 38.7186252,17.9913137 50.3992142,17.9913137 Z M50.5365614,-1.0658141e-14 C61.0998666,-1.0658141e-14 71.0459766,3.51222297 79.302137,10.1570045 C87.3143976,16.6060558 93.0385976,25.6502812 95.4207773,35.6217497 L95.5247275,36.0579195 L92.6424592,36.0579195 L92.5750867,35.7905379 C87.6992591,16.3809077 70.4137455,2.82410863 50.5365614,2.82410863 C30.6606786,2.82410863 13.3740083,16.3809077 8.49803618,35.7905379 L8.43196492,36.0579195 L5.54825084,36.0579195 L5.65364679,35.6217497 C8.03452533,25.6502812 13.7600264,16.6060558 21.772287,10.1570045 C30.0284475,3.51222297 39.9745574,-1.0658141e-14 50.5365614,-1.0658141e-14 Z M83.7098273,28.6459451 L84.3637449,30.0847958 L82.3537039,31.0121846 L82.3688844,31.0453888 L85.0023373,31.4905879 L85.7174105,33.0638576 L82.7867092,32.4524916 L80.461637,35.8713641 L79.746853,34.2980944 L81.2756002,32.1364688 L80.3092539,31.9535541 L78.9633953,32.5739493 L78.3093332,31.1349529 L83.7098273,28.6459451 Z M15.6069856,29.6301306 L16.1313629,30.7647547 C16.0006662,30.8068425 15.8647647,30.8873774 15.7225018,31.0063593 C15.5815402,31.1253412 15.4787466,31.2597601 15.4126754,31.4119463 C15.356869,31.5411224 15.3276646,31.6740851 15.3250623,31.8096691 C15.3226045,31.9465638 15.3593268,32.0833128 15.4355184,32.2202076 C15.5130111,32.3584129 15.6298286,32.493997 15.7885731,32.6269596 C15.9460164,32.7600678 16.1555071,32.8943412 16.4171898,33.0286145 C16.3625401,32.923759 16.3193118,32.8149714 16.2888063,32.7012322 C16.2583007,32.5873475 16.2418191,32.4747734 16.2367589,32.3621994 C16.2329999,32.2496253 16.2380601,32.1447698 16.2532406,32.0476328 C16.2685656,31.9516609 16.2927098,31.8660289 16.324372,31.7930669 C16.42225,31.5679188 16.5452842,31.3697128 16.6965108,31.1983031 C16.8475927,31.0268935 17.0202166,30.899028 17.2171291,30.8145611 C17.412596,30.7300941 17.632207,30.6917927 17.8761068,30.6982006 C18.1185609,30.7046084 18.3827013,30.7698518 18.667227,30.8950959 C18.9516081,31.0204857 19.185243,31.1815554 19.3655294,31.3785964 C19.5458157,31.5756374 19.6779582,31.7917563 19.7605112,32.02972 C19.8442207,32.2662275 19.8773286,32.5156962 19.8607024,32.77667 C19.8442207,33.036333 19.7807518,33.2933747 19.6715969,33.5466299 C19.5598396,33.8049822 19.3997939,34.0378488 19.1942068,34.2450841 C18.988475,34.4534845 18.7357561,34.608292 18.4385077,34.7118368 C18.1414039,34.8155273 17.7973129,34.852518 17.4075358,34.8257215 C17.0177588,34.7976144 16.5821511,34.6786326 16.1021586,34.4674652 C15.6221661,34.2564435 15.2299312,34.0095961 14.9263215,33.7295445 C14.6228563,33.4481822 14.3981851,33.1553149 14.2508621,32.8496319 C14.1048403,32.5438033 14.0299499,32.2317125 14.0286284,31.9132139 C14.0273476,31.5947153 14.0883587,31.2916537 14.2126941,31.0051942 C14.3791011,30.6227629 14.5885918,30.3233421 14.8413108,30.1059125 C15.0951863,29.8897937 15.3505076,29.7311997 15.6069856,29.6301306 Z M17.7605906,32.1243813 C17.6653149,32.1217599 17.582762,32.1371969 17.5116306,32.1704012 C17.4404992,32.2022947 17.3809338,32.250936 17.3287419,32.3148688 C17.2779957,32.3801122 17.2360686,32.4492877 17.2044065,32.5221041 C17.1484555,32.6512802 17.1293715,32.7919614 17.1459977,32.9429825 C17.1637806,33.0951686 17.2347674,33.2486654 17.3605486,33.4033273 C17.5573166,33.4570658 17.7261814,33.4826971 17.8697455,33.4826971 C18.0131649,33.4813864 18.1325848,33.466095 18.229017,33.4340558 C18.3255938,33.4033273 18.4017854,33.3586181 18.4575917,33.2984718 C18.5135427,33.2396362 18.5554697,33.1770142 18.5846741,33.1091493 C18.6506008,32.9569632 18.6556609,32.8009906 18.5998546,32.6384646 C18.5439036,32.4760841 18.37634,32.3340923 18.097019,32.211324 C17.9687801,32.1551097 17.8570228,32.1255463 17.7605906,32.1243813 Z M19.1822069,25.4772696 C19.5529,25.5872222 19.9465806,25.7726126 20.365562,26.0360621 C20.784688,26.2983465 21.1261766,26.5746117 21.3929195,26.8636925 C21.6582165,27.1540841 21.8486232,27.448262 21.9654407,27.7488479 C22.0811015,28.0494337 22.1243297,28.3473981 22.0949808,28.6441975 C22.0657764,28.9408512 21.968043,29.2235242 21.8004794,29.4946922 C21.6303133,29.7709574 21.4195215,29.9859112 21.1694049,30.139408 C20.9204449,30.2940699 20.6360638,30.3849447 20.3174182,30.4130518 C19.9986279,30.4413046 19.6520791,30.3989255 19.277338,30.286497 C18.9015848,30.173923 18.5041452,29.9859112 18.0851638,29.7223161 C17.667339,29.4601773 17.3257058,29.1852228 17.0628665,28.897307 C16.7988706,28.6083718 16.6133795,28.3166696 16.5055258,28.0211809 C16.3975275,27.7258379 16.359504,27.432825 16.3924673,27.1425791 C16.4254306,26.8521875 16.5270676,26.5695145 16.6972336,26.2932494 C16.8647973,26.0220814 17.0718302,25.8071275 17.3180432,25.6473685 C17.5632442,25.4861532 17.8438664,25.3914919 18.1574518,25.3594527 C18.4698807,25.3288699 18.8126705,25.368482 19.1822069,25.4772696 Z M80.2050145,24.3927431 C80.5731052,24.4657051 80.9108348,24.6076969 81.2182035,24.817408 C81.5267289,25.0259539 81.7858092,25.2880927 81.996601,25.6052807 C82.2163567,25.9354299 82.3496558,26.2756278 82.3927394,26.6222336 C82.4372689,26.9688393 82.4296063,27.2911244 82.3724988,27.5892345 L81.0798443,27.4650098 C81.1038439,27.2719009 81.1077474,27.0865105 81.0886634,26.9100037 C81.0710251,26.7348076 81.006255,26.5620873 80.893052,26.3944641 C80.7954631,26.2460644 80.669682,26.1298495 80.5172988,26.0440719 C80.3649156,25.9582943 80.1960508,25.9071772 80.0081019,25.8892644 C79.8201531,25.8726622 79.6183249,25.8943615 79.4024728,25.9558185 C79.1866208,26.0159648 78.9668652,26.122131 78.7446517,26.2716957 C78.2786831,26.5864079 77.9879407,26.9252951 77.869822,27.2898137 C77.7530046,27.6530216 77.801293,27.9958409 78.0145427,28.3169609 C78.1440828,28.5100698 78.3003695,28.6533723 78.4844148,28.7480336 C78.6673036,28.8413841 78.8526501,28.9028411 79.0405989,28.9308026 L78.6787251,30.1729036 C78.2940082,30.1229516 77.9484714,30.0001832 77.6412473,29.8044529 C77.3353243,29.6088682 77.0749428,29.3503703 76.8616932,29.0293959 C76.6509013,28.7135186 76.5022771,28.3757965 76.414664,28.0189965 C76.3258943,27.6607401 76.3143282,27.3026294 76.3802549,26.9445187 C76.4464707,26.5850972 76.5949503,26.2360157 76.8259829,25.8943615 C77.05716,25.5541636 77.3834682,25.2420728 77.8037508,24.9580891 C78.217672,24.6780375 78.6304367,24.4951229 79.0392978,24.4106559 C79.44946,24.3263346 79.8379359,24.3199268 80.2050145,24.3927431 Z M17.909793,26.7447106 C17.8324449,26.7933519 17.768976,26.8572847 17.7206876,26.9353438 C17.6723992,27.0132573 17.6431948,27.0977242 17.6342311,27.1897641 C17.6241108,27.2806388 17.6572187,27.3868051 17.7334103,27.5070976 C17.8094573,27.6272446 17.9365396,27.7641393 18.1142236,27.9189468 C18.290751,28.0737543 18.5421687,28.2527369 18.8686215,28.4573508 C19.1936284,28.6621103 19.4678892,28.811675 19.6888015,28.9063363 C19.9097137,29.0023082 20.0926024,29.0598331 20.2386242,29.0790566 C20.384646,29.0981345 20.4988611,29.0841538 20.581414,29.0381338 C20.6626658,28.9919683 20.728737,28.9306569 20.7770254,28.8525978 C20.8253139,28.7745387 20.8519158,28.687596 20.8556748,28.5929348 C20.860735,28.4982735 20.8227115,28.3896316 20.7414597,28.2668632 C20.6589068,28.1427842 20.5269089,28.0019574 20.3453213,27.8446742 C20.1624326,27.6860802 19.9084125,27.5057869 19.5834055,27.3010274 C19.2570973,27.0964135 18.9865955,26.9481595 18.7707435,26.855974 C18.5548914,26.7652448 18.3772074,26.7101957 18.2362458,26.6947586 C18.0951396,26.6783021 17.9861292,26.6947586 17.909793,26.7447106 Z M77.267229,19.7777896 L78.5536668,21.1873682 L75.4058122,26.5772331 L74.2808659,25.3443069 L75.010975,24.2686641 L73.8860287,23.0355923 L72.7596366,23.6776867 L71.6714126,22.4856834 L77.267229,19.7777896 Z M22.405241,23.5691904 L23.2609867,24.2586154 L21.8224549,26.0697032 L20.9665647,25.3791131 L22.405241,23.5691904 Z M25.4745908,18.3306378 C25.839067,18.4969503 26.2035432,18.7707397 26.5667183,19.1505497 C26.9285922,19.5316704 27.1888291,19.9103153 27.3449712,20.2864845 C27.501258,20.662508 27.5673292,21.0321237 27.5456428,21.3940209 C27.5227998,21.7560637 27.4213074,22.1051452 27.2397199,22.4415567 C27.0581323,22.7792788 26.8143771,23.0964668 26.5057072,23.3932661 L25.1750292,24.6812414 L21.0621294,20.3657087 L22.3268808,19.1416661 C22.6520324,18.8269539 22.9884608,18.5787959 23.3338531,18.397192 C23.6805464,18.215588 24.0321554,18.1183054 24.3902703,18.1043247 C24.7483852,18.0890332 25.1102591,18.165636 25.4745908,18.3306378 Z M77.0121968,21.2397959 C76.7428516,21.3970792 76.4622295,21.5633917 76.1701859,21.7385878 C75.8781422,21.9126188 75.6027248,22.0699021 75.3423434,22.2105833 L74.9715058,22.4165079 L75.7143376,23.2300119 L75.9492736,22.8745226 C76.110476,22.6262189 76.2896057,22.3602936 76.4863737,22.0776206 C76.6831417,21.7949476 76.8673316,21.5249447 77.0374976,21.2665923 L77.0121968,21.2397959 Z M24.1439127,19.5931274 C23.9611686,19.5995352 23.7846412,19.651963 23.616933,19.7504107 C23.4493693,19.849004 23.288167,19.973083 23.1344827,20.1213371 L23.0684114,20.1854154 L25.4352661,22.6693262 L25.5013373,22.6052478 C25.6550217,22.455683 25.7819595,22.2970891 25.8822952,22.1281552 C25.982631,21.9582019 26.0384374,21.7790737 26.0487023,21.5910619 C26.058678,21.4029045 26.0142932,21.1982906 25.9152586,20.979696 C25.816224,20.7609557 25.6473591,20.5256133 25.4060617,20.2723581 C25.16621,20.020268 24.9413943,19.8425961 24.7319035,19.737595 C24.5224128,19.6340502 24.3268014,19.5855545 24.1439127,19.5931274 Z M71.7143517,14.9280763 L73.3928798,16.2620715 C73.6367796,16.4564911 73.8526316,16.6573185 74.0392793,16.8645538 C74.225927,17.0704784 74.3642863,17.2801894 74.4545018,17.4925218 C74.5445727,17.7048543 74.5763794,17.9235945 74.550934,18.1500533 C74.5254886,18.3750558 74.4215384,18.6039903 74.2412521,18.8355463 C74.1611569,18.9366153 74.0671825,19.0273445 73.9567264,19.108025 C73.8475715,19.1885598 73.7306094,19.256279 73.606274,19.3100175 C73.4830952,19.3650666 73.3573141,19.3995816 73.2292197,19.4137079 C73.0996795,19.4289994 72.9776573,19.4174944 72.8596833,19.379193 L72.8381414,19.4086108 C73.0094641,19.6541475 73.1047397,19.9266262 73.1225225,20.2259013 C73.1390042,20.5251764 73.0259457,20.8321701 72.7808893,21.1455716 C72.5916393,21.3860111 72.3796907,21.5547994 72.143598,21.6532471 C71.9086619,21.7505297 71.663461,21.7914525 71.4095854,21.7735396 C71.157011,21.7556268 70.8966295,21.6826649 70.6298867,21.5574208 C70.3632885,21.432031 70.1068105,21.2708157 69.8578506,21.0726096 L68.0357585,19.6247297 L71.7143517,14.9280763 Z M28.2984503,14.2736031 L33.163001,18.1595194 L31.7954561,19.1122483 L30.8379288,18.2349572 L29.4703839,19.186521 L29.9466174,20.3990586 L28.6234573,21.3200395 L26.735294,15.3622072 L28.2984503,14.2736031 Z M70.7974504,18.655253 L70.0165951,19.6516717 L70.518274,20.0505596 C70.9968207,20.4305152 71.3714173,20.447263 71.6432203,20.1005116 C71.7789772,19.9266262 71.8171453,19.7576923 71.7561342,19.5926905 C71.6952677,19.4265236 71.5441857,19.2473954 71.3004305,19.0542865 L70.7974504,18.655253 Z M72.2018622,16.8632431 L71.5112224,17.7444664 L71.9264448,18.07447 C72.128273,18.2343746 72.3098605,18.3085017 72.4736652,18.2983074 C72.6374699,18.2881131 72.7758292,18.210054 72.8888876,18.0655864 C73.0018015,17.9209731 73.0349094,17.7789813 72.9879222,17.6409215 C72.9420916,17.5014054 72.8177562,17.3531514 72.6170846,17.1932467 L72.2018622,16.8632431 Z M28.1664524,15.7983771 L28.1371035,15.8187656 C28.2552221,16.1103222 28.3797021,16.4122187 28.5105434,16.728096 C28.6412402,17.0428082 28.7580576,17.3407726 28.8608512,17.6196592 L29.0120778,18.017382 L29.9136541,17.3894139 L29.5974662,17.1067409 C29.3751083,16.9110106 29.1377144,16.6962024 28.8875978,16.4595494 C28.6374812,16.224207 28.3961838,16.0028453 28.1664524,15.7983771 Z M34.6527127,10.7992446 L34.7771927,15.1134666 L35.6864315,16.9605257 L34.2782607,17.6639315 L33.3690219,15.817018 L30.0358208,13.1053378 L31.5431708,12.3532908 L32.4878308,13.2780582 C32.6527921,13.4494678 32.8154402,13.614324 32.9753413,13.7743743 C33.1366882,13.9341333 33.3029506,14.1004458 33.4770202,14.2731662 L33.5099835,14.2577291 C33.4770202,14.0135031 33.4476713,13.7781607 33.4223705,13.5517019 C33.3957685,13.3253888 33.3677207,13.0925222 33.3385163,12.8533933 L33.1797718,11.5360002 L34.6527127,10.7992446 Z M64.3042504,10.7951669 L65.8101546,11.5459033 L65.6527113,12.8632963 C65.6184468,13.0999494 65.58664,13.3301947 65.5588814,13.5553428 C65.5296771,13.7804909 65.4991715,14.0158332 65.4673648,14.2600592 L65.5004727,14.2766613 C65.6730965,14.1027759 65.8419614,13.9364634 66.0044648,13.7778695 C66.1671129,13.6192755 66.3346766,13.4555844 66.5048426,13.2879612 L67.4495026,12.3618831 L68.9224434,13.096163 L65.5930014,15.8116296 L64.6852083,17.6598538 L63.2770375,16.9576131 L64.183674,15.1093889 L64.3042504,10.7951669 Z M59.563746,9.21767385 L63.2170384,10.4007936 L62.8132375,11.6632832 L60.6558735,10.9635182 L60.3713479,11.8577028 L62.2151263,12.4549423 L61.8113254,13.7174319 L59.9675469,13.118736 L59.6438411,14.1356889 L61.887517,14.8634154 L61.4837161,16.1245942 L57.7442563,14.9120567 L59.563746,9.21767385 Z M43.4923821,8.27062464 L44.8459032,14.0954943 L43.4581176,14.4228765 L43.0580756,12.7012072 C43.0238111,12.5529531 42.992149,12.3866406 42.9654024,12.203726 C42.9386558,12.0208114 42.913355,11.8327996 42.886753,11.6410014 C42.8613076,11.4490575 42.8384646,11.2598807 42.8205372,11.0756554 C42.8027543,10.8901194 42.7864172,10.7238069 42.7710922,10.5768635 L42.7355264,10.5844364 L42.5793843,12.0962491 L42.3152438,14.1901555 L41.4975217,14.3832645 L40.3381662,12.6246044 L39.5509496,11.3353184 L39.5153839,11.344202 C39.5661301,11.4837181 39.6246834,11.6396907 39.6893089,11.8135761 C39.7553801,11.9876071 39.818849,12.1654246 39.8798601,12.3495043 C39.9408712,12.5337296 40.0004366,12.7140229 40.0562429,12.889219 C40.113495,13.0658714 40.1591811,13.2282518 40.1934456,13.3766515 L40.5934876,15.0970101 L39.2233402,15.4206059 L37.8698192,9.59573625 L39.5065647,9.20937279 L40.9323738,11.3877462 C41.0238905,11.5360002 41.1128048,11.6921185 41.2004179,11.8546445 C41.2880309,12.0157142 41.3781018,12.1782403 41.4720763,12.3379993 L41.507642,12.3304264 C41.5216659,12.1435797 41.530485,11.9595 41.5381475,11.773964 C41.5458101,11.5897387 41.5572316,11.4107561 41.5737132,11.2367251 L41.8556366,8.6556774 L43.4923821,8.27062464 Z M52.8750792,7.96465041 L54.4623798,8.22693484 L55.3321493,11.0740534 L55.6750837,12.4925156 L55.7105049,12.4989234 C55.7180228,12.3390187 55.7243842,12.162512 55.7320467,11.9707137 C55.738408,11.7787699 55.7485284,11.5831852 55.7625522,11.3836685 C55.7765761,11.1841517 55.7917566,10.9844893 55.8095395,10.7849726 C55.8261657,10.5854558 55.8490087,10.3949683 55.8795143,10.2132187 L56.157534,8.50567576 L57.6355351,8.75004737 L56.6743935,14.6541412 L55.0870929,14.3920024 L54.2197811,11.5345439 L53.8756901,10.125111 L53.8388232,10.1187031 C53.8198837,10.4639982 53.8021009,10.8400217 53.7841735,11.2479388 C53.7676918,11.6560016 53.7298129,12.0410543 53.6699584,12.4042622 L53.3930952,14.1119508 L51.9139376,13.8675792 L52.8750792,7.96465041 Z M49.3104119,7.99071866 C49.6558041,8.11465206 49.9529079,8.30397452 50.2018679,8.55985111 C50.4506833,8.81558207 50.6487525,9.13160495 50.7949189,9.50762849 C50.9407961,9.88365203 51.0221924,10.3172005 51.0372283,10.8071088 C51.0538546,11.2983277 51.0006506,11.7395947 50.8799296,12.1335311 C50.758052,12.5274674 50.5815246,12.8612575 50.3491909,13.1363576 C50.1180138,13.4113121 49.8336326,13.6249552 49.4972042,13.7771413 C49.1606311,13.9293274 48.7886369,14.0124837 48.3809324,14.0252994 C47.9670111,14.0392801 47.5886556,13.9804445 47.2457212,13.8501033 C46.9042325,13.7207815 46.6084299,13.5263619 46.3594699,13.2680095 C46.1093534,13.0083465 45.9125853,12.6873721 45.7652623,12.3010086 C45.6192405,11.9161015 45.5379888,11.478621 45.5215071,10.9875476 C45.506182,10.4976393 45.5595306,10.0588481 45.680107,9.6713196 C45.8021292,9.28379108 45.978512,8.95509816 46.2109903,8.68655153 C46.4433241,8.41785926 46.7252474,8.21062398 47.0590735,8.06484568 C47.3930442,7.91906739 47.7663396,7.83838689 48.1804054,7.82557122 C48.5879653,7.81159048 48.9650197,7.86663963 49.3104119,7.99071866 Z M48.2247903,9.1866541 C47.8655188,9.19801345 47.5886556,9.35675305 47.3943454,9.66112532 C47.2000352,9.96433252 47.1112655,10.3901624 47.1290483,10.9351199 C47.1466866,11.4812424 47.2623474,11.908383 47.4768983,12.217998 C47.6914492,12.5274674 47.9771315,12.6758671 48.3365476,12.6643621 C48.6959636,12.6515464 48.9726822,12.4852339 49.1656913,12.1629489 C49.3600015,11.8393531 49.4476146,11.405659 49.4311329,10.8595365 C49.41335,10.3147247 49.2978338,9.8964677 49.0831383,9.60476548 C48.8698886,9.31451958 48.5842063,9.17514912 48.2247903,9.1866541 Z" id="Combined-Shape" fill="#242E39"></path>
        </g>
    </g>
</svg>