<svg height="100" viewBox="0 0 130 100" width="130" xmlns="http://www.w3.org/2000/svg"><g fill="none" fill-rule="evenodd"><path d="m5 63.887h34.426v-40.83h-34.426z" fill="#ce242a"/><path d="m35.632 41.47h-5.429v6.903c0 .708-.295 1.005-.887 1.005-.586 0-.882-.297-.882-1.005v-17.877c0-.591.296-.944.882-.944.592 0 .887.353.887.944v6.254h5.429v-6.018c0-2.951-1.474-5.073-6.078-5.073-4.602 0-6.843 1.77-6.843 5.073v17.408c0 3.361 2.24 5.135 6.843 5.135 4.604 0 6.078-2.126 6.078-5.135zm-14.1-10.62c0-3.303-1.596-5.076-5.373-5.076h-7.316v27.38h5.724v-10.564h1.592c3.777 0 5.372-1.77 5.372-5.075v-6.665zm-6.965 7.788v-8.909c1.3 0 1.83.355 1.83 1.533v5.842c0 1.18-.53 1.534-1.83 1.534zm-4.467 20.698h-.324v1.859h-.926v-4.875h1.16c.89 0 1.383.412 1.383 1.493 0 1.133-.46 1.522-1.292 1.522zm-.176-2.369h-.148v1.682h.205c.285 0 .457-.235.457-.831 0-.621-.152-.85-.514-.85zm3.192 4.317c-1.11 0-1.438-.602-1.438-2.442 0-1.893.303-2.597 1.4-2.597 1.105 0 1.245.704 1.245 1.494 0 .151-.015.294-.026.391l-.864.026c.014-.125.02-.293.02-.382 0-.604-.07-.917-.375-.917-.366 0-.443.326-.443 1.946 0 1.529.043 1.846.478 1.846.352 0 .407-.387.407-.964 0-.134-.003-.34-.022-.499l.844.021c.018.129.024.289.024.414 0 1.11-.293 1.663-1.25 1.663zm4.282-.09v-2.214c0-.736.014-.896.02-1.358-.05.462-.066.807-.152 1.358-.12.742-.375 2.215-.375 2.215h-.78s-.253-1.473-.374-2.215c-.089-.545-.135-.875-.167-1.358.02.483.02.622.02 1.358v2.215h-.843v-4.875h1.187c.158.902.303 1.878.423 2.526.052.293.071.418.135.812.056-.387.09-.55.134-.806.12-.648.276-1.642.443-2.532h1.173v4.874zm3.036 0-.165-.896h-.704l-.154.897h-.88l.932-4.893h.94l1.008 4.893h-.977zm-.45-2.829c-.04-.297-.065-.586-.077-.75-.013.164-.032.453-.068.742l-.161 1.272h.47s-.089-.668-.164-1.264zm3.85 2.83-.21-.375c-.159.265-.315.464-.76.464-.945 0-1.377-.516-1.377-2.368 0-2.132.387-2.67 1.435-2.67.945 0 1.212.548 1.212 1.477 0 .083-.007.236-.015.3l-.868.024c.013-.094.013-.195.013-.303 0-.561-.076-.887-.356-.887-.413 0-.461.332-.461 2.034 0 1.563.1 1.758.46 1.758.406 0 .503-.317.503-.983 0-.09 0-.154-.007-.322h-.48v-.7h1.286v2.55h-.375zm.775 0h1.008v-1.079h-1.008zm2.716.09c-1.11 0-1.44-.603-1.44-2.443 0-1.893.303-2.597 1.403-2.597 1.104 0 1.243.704 1.243 1.494 0 .151-.015.294-.026.391l-.862.026c.012-.125.019-.293.019-.382 0-.604-.073-.917-.374-.917-.368 0-.445.326-.445 1.946 0 1.529.043 1.846.476 1.846.355 0 .412-.387.412-.964 0-.134-.006-.34-.024-.499l.843.021c.018.129.027.289.027.414 0 1.11-.293 1.663-1.252 1.663zm2.937 0c-.983 0-1.414-.453-1.414-2.521 0-2 .43-2.519 1.414-2.519.983 0 1.422.54 1.422 2.519 0 2.025-.44 2.52-1.422 2.52zm0-4.428c-.425 0-.455.474-.455 1.907 0 1.483.043 1.885.455 1.885.427 0 .462-.402.462-1.885 0-1.433-.035-1.907-.462-1.907zm4.423 4.338v-2.215c0-.736.014-.896.018-1.358-.05.462-.063.807-.153 1.358-.12.742-.372 2.215-.372 2.215h-.78s-.255-1.473-.377-2.215c-.088-.545-.13-.875-.163-1.358.019.483.019.622.019 1.358v2.215h-.845v-4.875h1.188c.158.902.304 1.878.424 2.526.05.293.07.418.133.812.06-.387.09-.55.135-.806.12-.648.278-1.642.443-2.532h1.173v4.874h-.843z" fill="#fffffe"/><path d="m40.667 63.887v-40.83h73.273l11.002 20.415-11.002 20.415z" fill="#ce242a"/><path d="m122.71 25.712c0 1.166-.914 2.081-2.105 2.081-1.178 0-2.118-.915-2.118-2.08 0-1.142.94-2.057 2.118-2.057 1.19 0 2.106.915 2.106 2.056zm-3.698 0c0 .915.678 1.643 1.605 1.643.903 0 1.568-.728 1.568-1.63 0-.916-.665-1.655-1.58-1.655s-1.593.74-1.593 1.642zm1.268 1.078h-.478v-2.056c.189-.037.452-.063.79-.063.389 0 .564.063.715.151.112.088.2.25.2.451 0 .226-.175.401-.426.477v.025c.2.075.314.226.376.501.063.314.1.44.151.514h-.514c-.062-.075-.1-.263-.164-.501-.036-.226-.162-.326-.425-.326h-.225zm.011-1.166h.226c.264 0 .477-.087.477-.3 0-.189-.138-.314-.439-.314-.126 0-.213.013-.264.025v.59z" fill="#1c1b19"/><path d="m45.369 30.941h6.49v1.695h-4.52v2.84h3.649v1.695h-3.649v2.917h4.764v1.695h-6.734zm12.368 9.147c2.2 0 3.604-1.298 3.604-3.742 0-2.412-1.435-3.71-3.604-3.71h-1.617v7.452h1.618zm-3.587-9.148h3.695c3.344 0 5.528 1.985 5.528 5.405 0 3.421-2.184 5.437-5.528 5.437h-3.695zm11.283 10.843h1.97v-10.842h-1.97zm6.963-9.147h-3.558v-1.695h9.085v1.695h-3.558v9.147h-1.969zm11.727 7.528c1.985 0 3.573-1.65 3.573-3.879 0-2.137-1.588-3.725-3.573-3.725-1.986 0-3.574 1.588-3.574 3.725 0 2.23 1.588 3.88 3.574 3.88zm0-9.406c3.19 0 5.604 2.428 5.604 5.527 0 3.192-2.413 5.681-5.604 5.681-3.192 0-5.604-2.49-5.604-5.68 0-3.1 2.412-5.528 5.604-5.528zm11.345 5.268c1.054 0 1.71-.626 1.71-1.71 0-1.039-.443-1.68-1.985-1.68h-1.497v3.39zm-3.742-5.085h3.497c1.176 0 1.71.092 2.184.305 1.084.489 1.771 1.527 1.771 2.963 0 1.298-.687 2.504-1.832 2.962v.03s.153.153.367.535l2.229 4.047h-2.2l-2.152-4.047h-1.894v4.047h-1.97v-10.843zm10.292 8.062s1.176 1.146 2.702 1.146c.825 0 1.573-.428 1.573-1.313 0-1.94-5.115-1.604-5.115-4.933 0-1.802 1.558-3.145 3.634-3.145 2.138 0 3.238 1.16 3.238 1.16l-.856 1.604s-1.038-.947-2.397-.947c-.916 0-1.634.534-1.634 1.298 0 1.924 5.1 1.45 5.1 4.917 0 1.725-1.313 3.176-3.573 3.176-2.413 0-3.741-1.481-3.741-1.481zm8.23-8.245h1.786l-1.13 3.344h-1.374zm-60.054 14.941c2.642 0 4.001 1.48 4.001 1.48l-.947 1.467s-1.236-1.145-2.962-1.145c-2.29 0-3.634 1.71-3.634 3.726 0 2.061 1.39 3.878 3.65 3.878 1.878 0 3.145-1.374 3.145-1.374l1.038 1.42s-1.496 1.756-4.26 1.756c-3.314 0-5.604-2.458-5.604-5.65 0-3.145 2.382-5.558 5.573-5.558m6.108.183h1.97v4.596h4.962v-4.596h1.97v10.842h-1.97v-4.551h-4.962v4.551h-1.97zm16.506 9.223c1.985 0 3.573-1.649 3.573-3.878 0-2.138-1.588-3.726-3.573-3.726s-3.573 1.588-3.573 3.726c0 2.229 1.588 3.878 3.573 3.878zm0-9.406c3.191 0 5.604 2.428 5.604 5.528 0 3.191-2.413 5.68-5.604 5.68s-5.604-2.489-5.604-5.68c0-3.1 2.413-5.528 5.604-5.528zm7.604 11.025h1.97v-10.842h-1.97zm9.543-11.025c2.642 0 4 1.48 4 1.48l-.946 1.467s-1.237-1.145-2.962-1.145c-2.29 0-3.635 1.71-3.635 3.726 0 2.061 1.39 3.878 3.65 3.878 1.878 0 3.146-1.374 3.146-1.374l1.038 1.42s-1.497 1.756-4.26 1.756c-3.314 0-5.604-2.458-5.604-5.65 0-3.145 2.381-5.558 5.573-5.558m6.108.183h6.489v1.695h-4.52v2.84h3.65v1.695h-3.65v2.917h4.764v1.695h-6.733z" fill="#fffffe"/><path d="m30.282 75.153v-6.775h-2.851v-1.778h7.688v1.778h-2.851v6.775zm5.968 0h1.974v-8.553h-1.974zm3.809 0v-8.553h2.598l2.239 5.772 2.251-5.772h2.586v8.553h-1.94v-5.806l-2.285 5.806h-1.362l-2.309-5.806v5.806zm11.371 0v-8.553h6.221v1.778h-4.247v1.615h3.913v1.697h-3.913v1.755h4.294v1.708zm11.912-.246-2.516-8.307h1.926l1.537 5.3 1.57-5.3h1.626l1.57 5.3 1.548-5.3h1.748l-2.517 8.307h-1.648l-1.592-5.356-1.603 5.356zm10.178-.056h1.904v-8.251h-1.904zm3.675 0v-8.251h2.093l3.619 5.055v-5.055h1.816v8.251h-1.771l-3.931-5.49v5.49zm9.165 0v-8.251h2.093l3.619 5.055v-5.055h1.815v8.251h-1.77l-3.931-5.49v5.49zm9.164 0v-8.251h6.002v1.715h-4.098v1.559h3.775v1.637h-3.775v1.692h4.143v1.648zm9.332-4.12h1.692c.813 0 1.392-.323 1.392-1.236 0-.946-.557-1.258-1.436-1.258h-1.648zm3.363 1.303 1.547 2.817h-2.037l-1.38-2.572h-1.493v2.572h-1.904v-8.251h3.986c1.893 0 2.929 1.18 2.929 2.84 0 1.135-.524 2.149-1.648 2.594z" fill="#1a1919"/><path d="m13.177 73.716h-4.334v-1.808l3.732-5.181h2.607l-3.65 5.054h1.692l.498-1.495h1.715v1.495h1.194v1.935h-1.194v1.31h-2.26zm8.217-.556c.754 0 1.194-.44 1.194-1.008 0-.684-.521-1.044-1.159-1.044-.695 0-1.437.313-1.437.997 0 .556.44 1.055 1.402 1.055zm-.046 1.993c-2.4 0-3.93-1.506-3.93-3.998 0-3.153 1.682-4.555 4.683-4.555.603 0 1.148.058 1.739.174l-.336 2.051c-.591-.127-1.09-.162-1.507-.162-1.634 0-2.098.765-2.098 1.692.348-.51 1.16-1.008 2.283-1.008 1.774 0 2.852 1.054 2.852 2.77 0 1.982-1.484 3.036-3.686 3.036z" fill="#ce242a"/></g></svg>