<?xml version="1.0" encoding="UTF-8"?>
<svg width="160px" height="160px" viewBox="0 0 160 160" version="1.1" xmlns="http://www.w3.org/2000/svg" xmlns:xlink="http://www.w3.org/1999/xlink">
    <title>Icon_Award</title>
    <defs>
        <ellipse id="path-1" cx="45.5" cy="45.049505" rx="45.5" ry="45.049505"></ellipse>
        <filter x="-43.2%" y="-35.9%" width="186.5%" height="187.4%" filterUnits="objectBoundingBox" id="filter-2">
            <feMorphology radius="1.35148515" operator="dilate" in="SourceAlpha" result="shadowSpreadOuter1"></feMorphology>
            <feOffset dx="0" dy="7" in="shadowSpreadOuter1" result="shadowOffsetOuter1"></feOffset>
            <feGaussianBlur stdDeviation="11.5" in="shadowOffsetOuter1" result="shadowBlurOuter1"></feGaussianBlur>
            <feComposite in="shadowBlurOuter1" in2="SourceAlpha" operator="out" result="shadowBlurOuter1"></feComposite>
            <feColorMatrix values="0 0 0 0 0   0 0 0 0 0   0 0 0 0 0  0 0 0 0.15 0" type="matrix" in="shadowBlurOuter1"></feColorMatrix>
        </filter>
    </defs>
    <g id="Icon_Award" stroke="none" stroke-width="1" fill="none" fill-rule="evenodd">
        <g id="Icon_award" transform="translate(35.000000, 34.000000)">
            <g id="Circle">
                <use fill="black" fill-opacity="1" filter="url(#filter-2)" xlink:href="#path-1"></use>
                <use stroke="#1D2836" stroke-width="2.7029703" fill="#FFFFFF" fill-rule="evenodd" xlink:href="#path-1"></use>
            </g>
            <g id="icon_award" transform="translate(18.000000, 21.000000)">
                <path d="M50.3039322,9.75402778 C49.7609237,12.5822685 46.1784661,16.2123611 43.629822,16.7790278 C43.629822,14.90125 43.643339,13.0345833 43.6242288,11.1683796 C43.6135085,10.1308796 43.5710932,9.09291667 43.5030424,8.05773148 C43.3893136,6.32023148 44.1961356,5.09199074 45.8149068,4.59847222 C47.3399915,4.13412037 49.4113475,4.83736111 49.9664746,6.30726852 C50.3640593,7.3600463 50.5146102,8.65587963 50.3039322,9.75402778 M11.1802881,16.8443056 C7.87655932,15.9461574 4.38219492,11.8327315 4.14215254,8.78643519 C3.98833898,6.82949074 4.76812712,5.45449074 6.41952542,4.77162037 C7.99122034,4.12162037 9.5750339,4.5100463 10.6890169,5.89847222 C10.955161,6.2299537 11.1537203,6.71791667 11.1588475,7.13643519 C11.1975339,10.326713 11.1802881,13.5169907 11.1802881,16.8443056 M50.4013475,1.26837963 C47.1721949,-0.266805556 43.982661,0.166527778 41.484822,2.58782407 C40.8364746,3.21606481 40.1899915,3.42532407 39.3230424,3.4225463 C31.3634237,3.39939815 23.4042712,3.39800926 15.4451186,3.42439815 C14.4975339,3.42717593 13.7979153,3.19569444 13.0847797,2.51097222 C8.80876271,-1.59412037 1.6270678,0.509583333 0.271177966,6.25171296 C-0.555686441,9.75217593 0.579271186,12.7993981 2.71727966,15.5378241 C4.91727966,18.3563426 7.8975339,20.1368981 11.088,21.6378241 C11.5177458,21.8401389 12.0206695,22.289213 12.1250763,22.7123611 C13.1607542,26.9086574 15.6180424,30.1438426 18.9045254,32.8350463 C20.7432966,34.3410648 21.8600763,36.2702315 22.4268559,38.5461574 C23.0076186,40.8790278 22.1896102,42.1031019 19.7807966,42.3419907 C18.742322,42.4456944 17.6866017,42.3993981 16.6388051,42.3915278 C15.6399492,42.3836574 15.0521949,42.8294907 14.8018983,43.801713 C14.4262203,45.2581944 13.9922797,46.6989352 13.5937627,48.1493981 C13.159822,49.7318056 13.3663051,49.9984722 15.0069831,49.9993981 C19.2005,50.000787 23.3935508,50.0001635 27.5866017,50.0001635 L27.5866017,49.989213 C31.7801186,49.989213 35.9731695,49.9938426 40.1666864,49.9864352 C41.672661,49.9836574 41.8637627,49.7183796 41.4736356,48.2452315 C41.1473644,47.0151389 40.8099068,45.7878241 40.4850339,44.5572685 C39.9602034,42.5679167 39.7406695,42.4220833 37.7047373,42.3808796 C36.4294831,42.3549537 35.1257966,42.3785648 33.8915593,42.1156019 C32.2602034,41.7669907 31.6855,40.6808796 32.0439322,39.0794907 C32.5985932,36.6044907 33.7195678,34.4669907 35.7349915,32.8202315 C39.0228729,30.1336574 41.4657119,26.8794907 42.5144407,22.6929167 C42.6137203,22.2975463 43.0672373,21.9049537 43.4555,21.6818056 C44.6291441,21.0072685 45.9081271,20.5035648 47.0458814,19.7776389 C51.0832542,17.2021759 54.1888898,13.9535648 54.6163051,8.88689815 C54.8950339,5.58597222 53.2566864,2.62578704 50.4013475,1.26837963" id="Fill-3" fill="#FCC200"></path>
                <path d="M35.4567288,16.4915278 C34.4355,17.2595833 33.4203305,18.0406019 32.3520254,18.7401389 C31.3172797,19.4174537 31.0003305,20.2105093 31.4804153,21.3906019 C31.9451186,22.5318056 32.2802458,23.7253241 32.6549915,24.90125 C32.7654576,25.2484722 32.8181271,25.614213 32.8973644,25.9716204 C32.8046102,26.0475463 32.712322,26.1234722 32.6200339,26.1993981 C31.8877881,25.6790278 31.1513475,25.1646759 30.425161,24.6364352 C26.9680847,22.1220833 27.5810085,22.1989352 24.2120254,24.626713 C23.4779153,25.1563426 22.7391441,25.6804167 22.0027034,26.2072685 L21.6885508,25.9831944 C22.0120254,24.900787 22.2907542,23.8026389 22.6673644,22.73875 C23.9584661,19.0906019 23.3227034,19.588287 21.0369407,17.863287 C20.1597373,17.20125 19.2802034,16.5424537 18.4016017,15.8818056 C18.435161,15.7771759 18.4691864,15.6730093 18.5032119,15.5683796 C18.8989322,15.525787 19.2941864,15.45125 19.6899068,15.4461574 C21.0099068,15.4304167 22.330839,15.4197685 23.6503729,15.4447685 C24.5979576,15.463287 25.1801186,15.0693056 25.4630424,14.1586574 C25.8629576,12.8697685 26.3080847,11.5943056 26.7466864,10.3174537 C26.863678,9.97625 27.0282119,9.65125 27.170839,9.31884259 C27.2817712,9.31421296 27.3927034,9.30958333 27.5036356,9.3049537 C27.8737203,10.3725463 28.2675763,11.4331944 28.610161,12.5095833 C29.5432966,15.43875 29.5349068,15.4415278 32.5911356,15.4401389 C33.7382119,15.4396759 34.8857542,15.4401389 36.0328305,15.4401389 C36.0780424,15.5447685 36.1232542,15.6498611 36.1689322,15.7549537 C35.9330847,16.0031019 35.7266017,16.28875 35.4567288,16.4915278" id="Path" fill="#242E39"></path>
            </g>
        </g>
    </g>
</svg>